<?xml version="1.0" standalone="no"?>
<svg xmlns="http://www.w3.org/2000/svg" viewBox="0 0 132.336 29" width="132.336" height="29"><g fill="#ed7292" color="#ed7292" transform="translate(0, 0) scale(0.29)"><svg width="100.0" height="100.0" x="0.0" y="0.0" viewBox="0 0 100 100"><g><g><polygon points="51.69,68.735 56.998,62.543 55.436,62.543 50.126,68.735   "></polygon><polygon points="53.904,62.543 42.089,62.543 42.089,68.735 48.598,68.735   "></polygon><polygon points="57.57,68.735 57.57,63.658 53.22,68.735   "></polygon><path d="M94.577,29.229h-0.136v-10.16H35.61l-10.433-2.839l-0.229,0.84l7.346,1.999H4.839v10.177C3.803,29.37,3,30.251,3,31.319    V78.91C3,80.063,3.938,81,5.091,81h89.486c1.154,0,2.091-0.937,2.091-2.09V31.319C96.668,30.165,95.731,29.229,94.577,29.229z     M91.538,21.972v7.257H73.863c-0.315-1.021-1.25-0.758-1.25-0.758s-1.302,0-2.454,0l-23.881-6.499H91.538z M10.503,43.557    c-1.154,0-2.09-0.937-2.09-2.091v-3.953c0-1.155,0.936-2.09,2.09-2.09h78.662c1.152,0,2.089,0.935,2.089,2.09v3.953    c0,1.154-0.937,2.091-2.089,2.091H10.503z M58.684,59.01v1.162H40.782V59.01H58.684z M7.742,21.972h35.219l25.142,6.841    c-0.088,0.124-0.153,0.269-0.2,0.416H30.99c-0.076-1.318-0.626-1.231-0.626-1.231S28.646,28,28.111,28    c-0.301,0-0.433,0.491-0.49,0.92c-0.138-0.994-0.596-0.922-0.596-0.922S25.307,28,24.772,28c-0.313,0-0.441,0.525-0.496,0.964    c-0.129-1.041-0.602-0.966-0.602-0.966S21.957,28,21.423,28c-0.301,0-0.435,0.49-0.491,0.919    c-0.138-0.992-0.595-0.921-0.595-0.921S18.618,28,18.083,28c-0.301,0-0.432,0.49-0.488,0.919c-0.14-0.992-0.597-0.921-0.597-0.921    S15.28,28,14.746,28c-0.379,0-0.49,0.777-0.522,1.229H7.742V21.972z M22.732,76.095c-8.243,0-14.949-6.708-14.949-14.95    c0-8.243,6.706-14.95,14.949-14.95c8.244,0,14.951,6.707,14.951,14.95C37.684,69.387,30.977,76.095,22.732,76.095z M40.734,70.901    h3.869v1.936h-3.869V70.901z M58.684,74.912H40.782v-1.161h17.901V74.912z M45.475,72.837v-1.936h3.773v1.936H45.475z     M50.121,72.837v-1.936h3.675v1.936H50.121z M58.732,72.837h-4.065v-1.936h4.065V72.837z M58.829,69.9H40.83v-8.592h17.999V69.9z     M76.885,76.095c-8.244,0-14.949-6.708-14.949-14.95c0-8.243,6.705-14.95,14.949-14.95c8.243,0,14.949,6.707,14.949,14.95    C91.834,69.387,85.128,76.095,76.885,76.095z"></path><polygon points="15.787,38.862 16.657,38.862 16.657,40.458 23.257,40.458 23.257,38.862 24.127,38.862 24.127,40.458     30.726,40.458 30.726,38.862 31.596,38.862 31.596,40.458 38.193,40.458 38.193,38.862 39.066,38.862 39.066,40.458     45.663,40.458 45.663,38.862 46.535,38.862 46.535,40.458 53.133,40.458 53.133,38.862 54.004,38.862 54.004,40.458     60.603,40.458 60.603,38.862 61.473,38.862 61.473,40.458 68.073,40.458 68.073,38.862 68.942,38.862 68.942,40.458     75.541,40.458 75.541,38.862 76.411,38.862 76.411,40.458 83.011,40.458 83.011,38.862 83.883,38.862 83.883,40.458     89.174,40.458 89.174,36.736 10.433,36.736 10.433,40.458 15.787,40.458   "></polygon><rect x="10.433" y="41.329" width="78.741" height="0.922"></rect><path d="M22.732,47.646c-7.441,0-13.498,6.055-13.498,13.499c0,7.442,6.057,13.498,13.498,13.498    c7.444,0,13.499-6.056,13.499-13.498C36.231,53.7,30.177,47.646,22.732,47.646z M31.553,53.679l-1.127,1.128l-1.455-1.456    l1.091-1.091C30.599,52.689,31.099,53.163,31.553,53.679z M25.918,60.795c-0.013-0.133-0.038-0.26-0.066-0.387l1.076-1.076    l1.456,1.455l-1.236,1.236L25.918,60.795z M26.636,62.536l-1.237,1.236l-0.381-0.381c0.429-0.436,0.732-0.992,0.858-1.614    L26.636,62.536z M25.472,56.849l1.236-1.235l1.456,1.457l-1.236,1.234L25.472,56.849z M26.415,58.817l-0.843,0.843    c-0.326-0.623-0.852-1.123-1.49-1.421l0.876-0.877L26.415,58.817z M23.304,57.992c-0.073-0.013-0.146-0.026-0.221-0.034    l-1.33-1.329l1.237-1.236l1.456,1.456L23.304,57.992z M22.101,58.001c-0.623,0.125-1.18,0.431-1.616,0.859l-0.48-0.481    l1.236-1.236L22.101,58.001z M19.54,61.413l-1.285-1.285l1.237-1.236l0.536,0.537c-0.315,0.496-0.502,1.084-0.502,1.716    C19.526,61.234,19.532,61.323,19.54,61.413z M19.198,62.097l-1.236,1.236l-1.455-1.456l1.235-1.235L19.198,62.097z M19.492,57.866    l-1.455-1.456l1.234-1.236l1.457,1.455L19.492,57.866z M18.978,58.379l-1.235,1.235l-1.455-1.456l1.234-1.236L18.978,58.379z     M17.229,60.128l-1.237,1.236l-1.454-1.456l1.237-1.236L17.229,60.128z M17.448,63.846l-1.235,1.236l-1.456-1.456l1.234-1.236    L17.448,63.846z M17.962,64.359l1.457,1.455l-1.236,1.236l-1.457-1.456L17.962,64.359z M18.476,63.846l1.235-1.235l0.474,0.473    c0.173,0.229,0.38,0.434,0.608,0.609l0.373,0.373l-1.234,1.237L18.476,63.846z M21.68,64.579l1.456,1.456l-1.237,1.235    l-1.454-1.456L21.68,64.579z M22.463,64.336c0.09,0.007,0.179,0.014,0.27,0.014c0.632,0,1.22-0.185,1.716-0.501l0.437,0.438    l-1.237,1.234L22.463,64.336z M25.398,64.798l1.455,1.457l-1.235,1.235l-1.457-1.455L25.398,64.798z M25.911,64.286l1.236-1.237    l1.455,1.456l-1.234,1.236L25.911,64.286z M27.661,62.536l1.235-1.236l1.455,1.456l-1.235,1.236L27.661,62.536z M29.409,60.787    l1.237-1.236l1.455,1.457l-1.237,1.235L29.409,60.787z M28.896,60.274l-1.457-1.457l1.237-1.235l1.455,1.456L28.896,60.274z     M27.22,55.101l1.236-1.236l1.458,1.455l-1.237,1.235L27.22,55.101z M26.708,54.587l-1.455-1.456l1.234-1.236l1.457,1.456    L26.708,54.587z M26.194,55.101l-1.236,1.236l-1.455-1.457l1.236-1.235L26.194,55.101z M22.99,54.367l-1.457-1.457l1.237-1.234    l1.455,1.455L22.99,54.367z M22.476,54.88l-1.235,1.237l-1.455-1.457l1.236-1.235L22.476,54.88z M19.271,54.148l-1.455-1.457    l1.236-1.235l1.455,1.454L19.271,54.148z M18.76,54.66l-1.238,1.235l-1.455-1.454l1.237-1.237L18.76,54.66z M17.009,56.41    l-1.234,1.235l-1.457-1.456l1.235-1.234L17.009,56.41z M15.26,58.158l-1.235,1.237l-1.457-1.456l1.237-1.235L15.26,58.158z     M15.48,61.877l-1.237,1.236l-1.454-1.455l1.235-1.237L15.48,61.877z M15.7,65.595l-1.236,1.237l-1.456-1.457l1.235-1.236    L15.7,65.595z M16.213,66.108l1.457,1.456L16.433,68.8l-1.455-1.456L16.213,66.108z M18.183,68.077l1.454,1.455l-1.234,1.236    l-1.458-1.455L18.183,68.077z M18.694,67.564l1.237-1.237l1.455,1.456l-1.235,1.236L18.694,67.564z M21.898,68.298l1.457,1.455    l-1.235,1.235l-1.456-1.456L21.898,68.298z M22.414,67.783l1.233-1.235l1.457,1.455l-1.235,1.237L22.414,67.783z M25.618,68.517    l1.456,1.456l-1.237,1.236l-1.455-1.456L25.618,68.517z M26.131,68.003l1.237-1.235l1.454,1.456l-1.235,1.235L26.131,68.003z     M27.88,66.255l1.236-1.236l1.457,1.455l-1.238,1.236L27.88,66.255z M29.63,64.505l1.234-1.235l1.457,1.456l-1.236,1.235    L29.63,64.505z M31.379,62.756l1.235-1.236l1.456,1.456l-1.235,1.236L31.379,62.756z M31.159,59.038l1.235-1.235l1.456,1.455    l-1.236,1.235L31.159,59.038z M30.646,58.524L29.19,57.07l1.235-1.237l1.456,1.455L30.646,58.524z M27.624,50.76    c0.651,0.299,1.27,0.653,1.851,1.061l-1.019,1.018l-1.454-1.456L27.624,50.76z M26.901,50.456l-0.414,0.413l-0.801-0.802    C26.102,50.174,26.506,50.307,26.901,50.456z M25.976,51.382l-1.236,1.235l-1.456-1.455l1.237-1.237L25.976,51.382z     M22.731,49.691c0.323,0,0.64,0.017,0.955,0.042l-0.916,0.915l-0.922-0.92C22.141,49.705,22.435,49.691,22.731,49.691z     M20.624,49.884c0.1-0.018,0.2-0.039,0.301-0.054l1.331,1.332l-1.234,1.236l-1.456-1.456L20.624,49.884z M19.271,50.211    l-0.218,0.219l-0.109-0.111C19.053,50.282,19.159,50.244,19.271,50.211z M18.197,50.599l0.342,0.343l-1.235,1.236l-0.739-0.738    C17.085,51.121,17.63,50.839,18.197,50.599z M15.948,51.85l0.842,0.842l-1.237,1.236l-0.959-0.96    C15.018,52.563,15.47,52.188,15.948,51.85z M14.084,53.484l0.956,0.957l-1.235,1.236l-0.816-0.816    C13.319,54.374,13.687,53.915,14.084,53.484z M12.592,55.49l0.699,0.699l-1.235,1.237l-0.276-0.276    C12.007,56.573,12.279,56.018,12.592,55.49z M11.508,57.904l0.035,0.035l-0.067,0.066C11.484,57.973,11.496,57.938,11.508,57.904z     M11.148,59.361l0.907-0.909l1.456,1.456l-1.236,1.236l-1.217-1.217C11.085,59.737,11.114,59.548,11.148,59.361z M10.956,61.468    c0-0.201,0.004-0.401,0.015-0.603l0.792,0.793l-0.766,0.764C10.972,62.106,10.956,61.789,10.956,61.468z M11.104,63.34    l1.171-1.169l1.455,1.455l-1.235,1.236l-1.361-1.36C11.124,63.449,11.114,63.395,11.104,63.34z M11.721,65.637    c-0.099-0.26-0.188-0.523-0.269-0.791l0.529,0.529L11.721,65.637z M13.084,68.211c-0.405-0.582-0.763-1.2-1.06-1.851l0.471-0.472    l1.455,1.455L13.084,68.211z M13.522,68.797l0.941-0.939l1.456,1.456l-0.978,0.977C14.427,69.835,13.953,69.335,13.522,68.797z     M17.272,71.898c-0.625-0.329-1.217-0.713-1.769-1.143l0.929-0.929l1.455,1.454L17.272,71.898z M17.964,72.232l0.438-0.437    l0.953,0.953C18.877,72.606,18.414,72.433,17.964,72.232z M18.914,71.281l1.237-1.235l1.456,1.456l-1.237,1.236L18.914,71.281z     M22.731,73.245c-0.582,0-1.154-0.046-1.714-0.127l1.103-1.104l1.213,1.214C23.135,73.239,22.934,73.245,22.731,73.245z     M22.632,71.502l1.237-1.235l1.455,1.454l-1.236,1.237L22.632,71.502z M25.061,73.012l0.776-0.777l0.458,0.458    C25.893,72.819,25.479,72.928,25.061,73.012z M27.05,72.422l-0.698-0.701l1.235-1.235l1.122,1.124    C28.182,71.921,27.628,72.192,27.05,72.422z M29.338,71.211l-1.237-1.238l1.234-1.237l1.38,1.381    C30.284,70.515,29.825,70.882,29.338,71.211z M31.231,69.607l-1.384-1.384l1.237-1.236l1.265,1.264    C32.011,68.73,31.637,69.184,31.231,69.607z M32.759,67.635l-1.16-1.161l1.236-1.236l0.765,0.766    C33.361,66.571,33.08,67.117,32.759,67.635z M33.88,65.257l-0.533-0.531l0.929-0.931C34.177,64.296,34.041,64.782,33.88,65.257z     M34.388,59.795c0.077,0.547,0.121,1.105,0.121,1.673c0,0.297-0.015,0.592-0.036,0.884l-1.345-1.344l1.235-1.237L34.388,59.795z     M34.133,58.515l-1.224-1.227l0.588-0.589C33.757,57.282,33.971,57.888,34.133,58.515z M32.395,56.775l-1.455-1.455l1.08-1.081    c0.432,0.553,0.814,1.145,1.143,1.77L32.395,56.775z"></path><path d="M76.885,47.646c-7.444,0-13.498,6.055-13.498,13.499c0,7.442,6.054,13.498,13.498,13.498    c7.443,0,13.499-6.056,13.499-13.498C90.384,53.7,84.328,47.646,76.885,47.646z M85.821,53.57l-1.236,1.236l-1.455-1.456    l1.235-1.235L85.821,53.57z M80.069,60.787c-0.013-0.128-0.036-0.251-0.066-0.373l1.084-1.082l1.455,1.455l-1.235,1.236    L80.069,60.787z M80.794,62.536l-1.236,1.236l-0.385-0.385c0.429-0.436,0.732-0.993,0.856-1.616L80.794,62.536z M79.631,56.849    l1.236-1.235l1.456,1.457l-1.236,1.234L79.631,56.849z M80.572,58.817l-0.844,0.847c-0.326-0.623-0.851-1.125-1.489-1.424    l0.877-0.878L80.572,58.817z M77.461,57.993c-0.071-0.013-0.144-0.026-0.219-0.033l-1.328-1.331l1.234-1.236l1.456,1.456    L77.461,57.993z M76.258,58c-0.623,0.124-1.18,0.429-1.617,0.855l-0.478-0.477l1.236-1.236L76.258,58z M73.692,61.406    l-1.278-1.278l1.237-1.236l0.531,0.533c-0.317,0.496-0.504,1.086-0.504,1.72C73.679,61.232,73.686,61.319,73.692,61.406z     M73.357,62.097l-1.235,1.236l-1.457-1.456l1.236-1.235L73.357,62.097z M73.651,57.866l-1.456-1.456l1.236-1.236l1.454,1.455    L73.651,57.866z M73.137,58.379l-1.235,1.235l-1.455-1.456l1.235-1.236L73.137,58.379z M71.388,60.128l-1.234,1.236l-1.457-1.456    l1.236-1.236L71.388,60.128z M71.607,63.846l-1.235,1.236l-1.457-1.456l1.238-1.236L71.607,63.846z M72.122,64.359l1.455,1.455    l-1.236,1.236l-1.456-1.456L72.122,64.359z M72.635,63.846l1.233-1.235l0.448,0.445c0.185,0.249,0.407,0.471,0.656,0.657    l0.353,0.353l-1.234,1.237L72.635,63.846z M75.84,64.579l1.455,1.456l-1.236,1.235l-1.456-1.456L75.84,64.579z M76.623,64.336    c0.087,0.007,0.173,0.014,0.262,0.014c0.634,0,1.223-0.186,1.721-0.503l0.438,0.439l-1.236,1.234L76.623,64.336z M79.558,64.798    l1.455,1.457l-1.236,1.235l-1.454-1.455L79.558,64.798z M80.069,64.286l1.237-1.237l1.455,1.456l-1.236,1.236L80.069,64.286z     M81.82,62.536l1.235-1.236l1.456,1.456l-1.236,1.236L81.82,62.536z M83.569,60.787l1.236-1.236l1.456,1.457l-1.237,1.235    L83.569,60.787z M83.056,60.274l-1.455-1.457l1.234-1.235l1.457,1.456L83.056,60.274z M81.38,55.101l1.237-1.236l1.455,1.455    l-1.237,1.235L81.38,55.101z M80.867,54.587l-1.456-1.456l1.236-1.236l1.455,1.456L80.867,54.587z M80.354,55.101l-1.238,1.236    l-1.454-1.457l1.236-1.235L80.354,55.101z M77.148,54.367l-1.455-1.457l1.235-1.234l1.457,1.455L77.148,54.367z M76.637,54.88    l-1.237,1.237l-1.456-1.457l1.237-1.235L76.637,54.88z M73.432,54.148l-1.457-1.457l1.236-1.235l1.456,1.454L73.432,54.148z     M72.918,54.66l-1.236,1.235l-1.457-1.454l1.237-1.237L72.918,54.66z M71.169,56.41l-1.236,1.235l-1.455-1.456l1.235-1.234    L71.169,56.41z M69.42,58.158l-1.236,1.237l-1.456-1.456l1.235-1.235L69.42,58.158z M69.639,61.877l-1.235,1.236l-1.455-1.455    l1.235-1.237L69.639,61.877z M69.858,65.595l-1.236,1.237l-1.456-1.457l1.237-1.236L69.858,65.595z M70.372,66.108l1.457,1.456    L70.591,68.8l-1.454-1.456L70.372,66.108z M72.341,68.077l1.456,1.455l-1.236,1.236l-1.456-1.455L72.341,68.077z M72.854,67.564    l1.237-1.237l1.455,1.456l-1.237,1.236L72.854,67.564z M76.059,68.298l1.455,1.455l-1.234,1.235l-1.456-1.456L76.059,68.298z     M76.572,67.783l1.235-1.235l1.456,1.455l-1.234,1.237L76.572,67.783z M79.776,68.517l1.457,1.456l-1.237,1.236l-1.455-1.456    L79.776,68.517z M80.291,68.003l1.234-1.235l1.456,1.456l-1.235,1.235L80.291,68.003z M82.04,66.255l1.235-1.236l1.457,1.455    l-1.237,1.236L82.04,66.255z M83.788,64.505l1.236-1.235l1.455,1.456l-1.234,1.235L83.788,64.505z M85.538,62.756l1.234-1.236    l1.456,1.456l-1.234,1.236L85.538,62.756z M85.316,59.038l1.238-1.235l1.455,1.455l-1.237,1.235L85.316,59.038z M84.806,58.524    L83.35,57.07l1.235-1.237l1.456,1.455L84.806,58.524z M83.82,51.635l-1.203,1.203l-1.456-1.456l0.842-0.843    C82.644,50.85,83.251,51.218,83.82,51.635z M81.291,50.224l-0.644,0.645l-1.222-1.223C80.067,49.787,80.691,49.982,81.291,50.224z     M80.134,51.382l-1.235,1.235l-1.456-1.455l1.235-1.237L80.134,51.382z M76.884,49.368c0.427,0,0.846,0.023,1.261,0.067    l-1.216,1.213l-1.224-1.223C76.095,49.387,76.488,49.368,76.884,49.368z M76.416,51.162l-1.235,1.236l-1.456-1.456l1.236-1.236    L76.416,51.162z M73.887,49.754l-0.676,0.676l-0.354-0.354C73.195,49.954,73.538,49.847,73.887,49.754z M72.129,50.373l0.57,0.569    l-1.237,1.236l-0.938-0.938C71.033,50.911,71.569,50.622,72.129,50.373z M69.915,51.658l1.034,1.033l-1.236,1.236l-1.129-1.129    C68.998,52.386,69.443,52.006,69.915,51.658z M68.086,53.327l1.113,1.114l-1.236,1.236l-0.947-0.948    C67.339,54.235,67.696,53.767,68.086,53.327z M66.628,55.366l0.822,0.823l-1.235,1.237l-0.373-0.374    C66.061,56.468,66.324,55.905,66.628,55.366z M65.587,57.825l0.114,0.114l-0.204,0.205C65.524,58.038,65.556,57.932,65.587,57.825    z M65.233,59.435l0.981-0.982l1.455,1.456l-1.235,1.236l-1.26-1.259C65.191,59.734,65.212,59.583,65.233,59.435z M65.107,61.143    c0-0.097,0.005-0.193,0.008-0.292l0.806,0.808l-0.746,0.744C65.132,61.989,65.107,61.568,65.107,61.143z M65.309,63.296    l1.126-1.125l1.456,1.455l-1.237,1.236l-1.294-1.293C65.342,63.479,65.325,63.387,65.309,63.296z M65.966,65.55    c-0.074-0.184-0.145-0.37-0.208-0.559l0.384,0.384L65.966,65.55z M66.279,66.262l0.374-0.373l1.457,1.455l-0.735,0.735    C66.958,67.51,66.59,66.902,66.279,66.262z M67.823,68.657l0.799-0.8l1.456,1.456l-0.806,0.806    C68.747,69.674,68.264,69.186,67.823,68.657z M71.645,71.686c-0.635-0.317-1.239-0.688-1.803-1.109l0.749-0.749l1.457,1.454    L71.645,71.686z M72.347,72.009l0.214-0.213l0.477,0.475C72.804,72.19,72.572,72.104,72.347,72.009z M74.459,72.668l-1.386-1.387    l1.235-1.235l1.458,1.456l-1.19,1.189C74.537,72.684,74.498,72.676,74.459,72.668z M76.884,72.92    c-0.481,0-0.954-0.032-1.421-0.089l0.816-0.816l0.896,0.897C77.079,72.914,76.982,72.92,76.884,72.92z M78.385,72.821    c-0.08,0.011-0.162,0.022-0.242,0.03l-1.351-1.35l1.237-1.235l1.454,1.454L78.385,72.821z M79.64,72.592l0.356-0.357l0.207,0.207    C80.018,72.495,79.829,72.545,79.64,72.592z M80.976,72.187l-0.466-0.466l1.236-1.235l0.913,0.915    C82.123,71.705,81.561,71.97,80.976,72.187z M83.299,71.013l-1.04-1.04l1.236-1.237l1.206,1.207    C84.262,70.334,83.793,70.69,83.299,71.013z M85.229,69.444l-1.222-1.221l1.237-1.236l1.125,1.126    C86.021,68.585,85.642,69.03,85.229,69.444z M86.788,67.504l-1.031-1.03l1.237-1.236l0.661,0.661    C87.405,66.458,87.115,66.994,86.788,67.504z M87.951,65.17l-0.444-0.444l0.825-0.827C88.227,64.331,88.103,64.757,87.951,65.17z     M88.587,59.834c0.048,0.431,0.074,0.867,0.074,1.309c0,0.399-0.021,0.791-0.06,1.18l-1.314-1.314l1.236-1.237L88.587,59.834z     M88.383,58.604l-1.315-1.316l0.683-0.683C88.02,57.245,88.229,57.912,88.383,58.604z M86.555,56.775l-1.457-1.455l1.22-1.221    c0.422,0.564,0.792,1.169,1.109,1.803L86.555,56.775z"></path></g></g></svg></g><line x1="41" y1="1" x2="41" y2="28" stroke="#00ceff" stroke-linecap="round"></line><path fill="#00ceff" fill-rule="nonzero" d="M6.05 16.97L3.34 16.97Q3.24 16.97 3.24 16.85L3.24 16.85L3.24 3.17L0.12 3.17Q0 3.17 0 3.05L0 3.05L0.02 0.36Q0.02 0.26 0.12 0.26L0.12 0.26L9.24 0.26Q9.36 0.26 9.36 0.36L9.36 0.36L9.36 3.05Q9.36 3.17 9.26 3.17L9.26 3.17L6.12 3.17L6.14 16.85Q6.14 16.97 6.05 16.97L6.05 16.97ZM14.45 17.21L14.45 17.21Q13.15 17.21 12.08 16.55Q11.02 15.89 10.37 14.80Q9.72 13.70 9.72 12.38L9.72 12.38L9.74 4.78Q9.74 3.46 10.38 2.38Q11.02 1.30 12.10 0.65Q13.18 0 14.45 0L14.45 0Q15.74 0 16.80 0.65Q17.86 1.30 18.49 2.38Q19.13 3.46 19.13 4.78L19.13 4.78L19.15 12.38Q19.15 13.70 18.52 14.80Q17.88 15.89 16.81 16.55Q15.74 17.21 14.45 17.21ZM14.45 14.30L14.45 14.30Q15.17 14.30 15.71 13.72Q16.25 13.13 16.25 12.38L16.25 12.38L16.22 4.78Q16.22 3.98 15.72 3.43Q15.22 2.88 14.45 2.88L14.45 2.88Q13.70 2.88 13.18 3.42Q12.65 3.96 12.65 4.78L12.65 4.78L12.65 12.38Q12.65 13.18 13.18 13.74Q13.70 14.30 14.45 14.30ZM25.54 17.21L25.54 17.21Q24.26 17.21 23.18 16.55Q22.10 15.89 21.47 14.78Q20.83 13.68 20.83 12.36L20.83 12.36L20.88 0.36Q20.88 0.26 20.98 0.26L20.98 0.26L23.66 0.26Q23.76 0.26 23.76 0.36L23.76 0.36L23.76 12.36Q23.76 13.18 24.28 13.74Q24.79 14.30 25.54 14.30L25.54 14.30Q26.30 14.30 26.82 13.74Q27.34 13.18 27.34 12.36L27.34 12.36L27.34 0.36Q27.34 0.26 27.43 0.26L27.43 0.26L30.12 0.26Q30.22 0.26 30.22 0.36L30.22 0.36L30.26 12.36Q30.26 13.70 29.63 14.81Q28.99 15.91 27.92 16.56Q26.86 17.21 25.54 17.21ZM34.97 16.97L32.26 16.97Q32.16 16.97 32.16 16.85L32.16 16.85L32.21 0.36Q32.21 0.26 32.30 0.26L32.30 0.26L37.15 0.26Q38.45 0.26 39.54 0.90Q40.63 1.54 41.28 2.60Q41.93 3.67 41.93 5.02L41.93 5.02Q41.93 5.90 41.66 6.61Q41.40 7.32 41.04 7.81Q40.68 8.30 40.39 8.54L40.39 8.54Q41.69 9.98 41.69 11.93L41.69 11.93L41.71 16.85Q41.71 16.97 41.59 16.97L41.59 16.97L38.88 16.97Q38.78 16.97 38.78 16.90L38.78 16.90L38.78 11.93Q38.78 11.06 38.17 10.43Q37.56 9.79 36.67 9.79L36.67 9.79L35.09 9.79L35.06 16.85Q35.06 16.97 34.97 16.97L34.97 16.97ZM35.09 3.14L35.09 6.91L37.15 6.91Q37.90 6.91 38.47 6.36Q39.05 5.81 39.05 5.02L39.05 5.02Q39.05 4.25 38.48 3.70Q37.92 3.14 37.15 3.14L37.15 3.14L35.09 3.14ZM48.36 16.97L45.65 16.97Q45.55 16.97 45.55 16.85L45.55 16.85L45.55 3.17L42.43 3.17Q42.31 3.17 42.31 3.05L42.31 3.05L42.34 0.36Q42.34 0.26 42.43 0.26L42.43 0.26L51.55 0.26Q51.67 0.26 51.67 0.36L51.67 0.36L51.67 3.05Q51.67 3.17 51.58 3.17L51.58 3.17L48.43 3.17L48.46 16.85Q48.46 16.97 48.36 16.97L48.36 16.97ZM51.17 16.85L51.17 16.85L54.14 0.36Q54.17 0.26 54.26 0.26L54.26 0.26L57.74 0.26Q57.84 0.26 57.86 0.36L57.86 0.36L60.72 16.85Q60.74 16.97 60.62 16.97L60.62 16.97L57.96 16.97Q57.86 16.97 57.84 16.85L57.84 16.85L57.58 15.10L54.31 15.10L54.05 16.85Q54.02 16.97 53.93 16.97L53.93 16.97L51.26 16.97Q51.17 16.97 51.17 16.85ZM55.87 5.78L54.79 12.53L57.10 12.53L56.11 5.78L55.97 4.90L55.87 5.78ZM65.04 16.97L62.35 16.97Q62.23 16.97 62.23 16.85L62.23 16.85L62.28 0.36Q62.28 0.26 62.38 0.26L62.38 0.26L66.98 0.26Q69.19 0.26 70.48 1.61Q71.76 2.95 71.76 5.26L71.76 5.26Q71.76 6.96 71.09 8.21Q70.42 9.46 69.34 10.13Q68.26 10.80 66.98 10.80L66.98 10.80L65.16 10.80L65.16 16.85Q65.16 16.97 65.04 16.97L65.04 16.97ZM65.16 3.14L65.16 7.90L66.98 7.90Q67.75 7.90 68.32 7.16Q68.88 6.43 68.88 5.26L68.88 5.26Q68.88 4.32 68.38 3.72Q67.87 3.12 66.98 3.12L66.98 3.12L65.16 3.14ZM81.24 16.97L73.49 16.97Q73.39 16.97 73.39 16.85L73.39 16.85L73.42 0.36Q73.42 0.26 73.51 0.26L73.51 0.26L81.22 0.26Q81.31 0.26 81.31 0.38L81.31 0.38L81.31 3.07Q81.31 3.17 81.22 3.17L81.22 3.17L76.30 3.17L76.30 6.91L81.22 6.91Q81.31 6.91 81.31 7.01L81.31 7.01L81.34 9.72Q81.34 9.82 81.24 9.82L81.24 9.82L76.30 9.82L76.30 14.02L81.24 14.02Q81.34 14.02 81.34 14.14L81.34 14.14L81.34 16.87Q81.34 16.97 81.24 16.97L81.24 16.97Z" transform="translate(51, 6.016)"></path></svg>